<?xml version="1.0" encoding="UTF-8"?>
<svg xmlns="http://www.w3.org/2000/svg" xmlns:xlink="http://www.w3.org/1999/xlink" width="200px" height="200px" viewBox="0 0 251 253" version="1.1">
<g id="surface1">
<path style=" stroke:none;fill-rule:nonzero;fill:#02b3e4;fill-opacity:1;" d="M 172.261719 247.457031 C 169.660156 244.214844 167.613281 241.484375 167.710938 241.390625 C 167.8125 241.292969 170.425781 240.210938 173.523438 238.988281 C 176.621094 237.761719 179.324219 236.59375 179.535156 236.390625 C 179.835938 236.105469 164.644531 217.214844 161.445312 213.898438 C 160.921875 213.351562 157.558594 212.953125 149.023438 212.425781 C 142.585938 212.023438 137.074219 211.609375 136.773438 211.496094 C 136.476562 211.386719 133.835938 203.625 130.914062 194.246094 L 125.59375 177.199219 L 121.804688 174.628906 C 119.71875 173.214844 114.753906 169.777344 110.773438 166.988281 C 92.835938 154.429688 76.378906 143 69.828125 138.542969 C 68.183594 137.425781 63.089844 136.050781 44.703125 131.761719 L 21.644531 126.378906 L 10.753906 114.617188 C 4.765625 108.144531 -0.0742188 102.785156 0 102.703125 C 0.113281 102.585938 93.957031 117.523438 98.4375 118.375 C 99.570312 118.589844 100.046875 118.21875 101.519531 115.964844 C 103.382812 113.113281 103.648438 112.210938 102.625 112.210938 C 102.273438 112.210938 95.214844 110.304688 86.9375 107.976562 C 78.660156 105.648438 66.097656 102.128906 59.015625 100.160156 C 51.9375 98.191406 45.980469 96.429688 45.777344 96.242188 C 45.574219 96.050781 46.386719 93.53125 47.582031 90.636719 C 48.777344 87.742188 49.542969 85.195312 49.289062 84.972656 C 49.035156 84.753906 45.929688 83.546875 42.390625 82.289062 C 38.851562 81.035156 35.675781 79.734375 35.335938 79.394531 C 34.417969 78.488281 19.015625 50.027344 19.183594 49.550781 C 19.265625 49.328125 34.777344 56.011719 53.65625 64.40625 C 72.53125 72.800781 91.71875 81.308594 96.292969 83.316406 C 100.863281 85.324219 108.625 88.765625 113.539062 90.964844 L 122.476562 94.960938 L 124.917969 93.289062 C 126.265625 92.371094 127.371094 91.46875 127.382812 91.285156 C 127.398438 90.964844 122.808594 88.304688 86.371094 67.53125 C 77.226562 62.320312 69.636719 57.957031 69.507812 57.839844 C 69.375 57.722656 70.824219 56.050781 72.722656 54.128906 L 76.179688 50.628906 L 74.839844 49.558594 C 74.101562 48.96875 70.621094 46.367188 67.105469 43.777344 L 60.710938 39.066406 L 56.296875 26.296875 C 53.871094 19.273438 50.8125 10.484375 49.5 6.761719 L 47.117188 0 L 55.75 6.191406 C 60.496094 9.597656 69.570312 16.121094 75.910156 20.6875 C 82.253906 25.253906 92.511719 32.628906 98.707031 37.074219 C 112.199219 46.761719 133.828125 62.304688 144.5625 70.027344 C 148.839844 73.105469 163.511719 83.648438 177.164062 93.453125 C 190.820312 103.257812 201.921875 111.484375 201.835938 111.734375 C 201.75 111.984375 194.367188 118.566406 185.425781 126.367188 L 169.175781 140.546875 L 171.484375 141.652344 C 172.753906 142.257812 180.546875 145.703125 188.808594 149.308594 L 203.824219 155.859375 L 204.953125 159.007812 C 205.933594 161.753906 206.609375 162.597656 210.183594 165.554688 C 214.675781 169.273438 214.769531 169.511719 213.953125 175.441406 C 213.683594 177.40625 213.316406 178.023438 211.941406 178.808594 C 211.019531 179.339844 208.265625 181.054688 205.828125 182.625 C 200.902344 185.792969 200.964844 185.839844 202.835938 180.476562 C 204.171875 176.636719 204.316406 176.753906 195.832031 174.804688 L 188.105469 173.03125 L 174.242188 177.710938 C 166.621094 180.285156 160.226562 182.550781 160.039062 182.738281 C 159.851562 182.929688 161.433594 185.851562 163.558594 189.234375 C 165.683594 192.617188 172.449219 203.449219 178.589844 213.304688 C 184.734375 223.160156 190.027344 231.507812 190.355469 231.851562 C 190.808594 232.328125 193.214844 231.652344 200.339844 229.054688 C 205.5 227.171875 209.886719 225.625 210.082031 225.617188 C 210.421875 225.609375 209.640625 227.566406 203.277344 242.625 L 200.496094 249.210938 L 200.15625 246.371094 C 199.964844 244.804688 199.808594 242.261719 199.808594 240.71875 C 199.804688 238.503906 199.621094 237.910156 198.945312 237.910156 C 197.84375 237.910156 177.140625 243.828125 176.605469 244.296875 C 176.386719 244.492188 176.445312 246.542969 176.738281 248.859375 C 177.03125 251.175781 177.210938 253.132812 177.132812 253.210938 C 177.054688 253.289062 174.863281 250.699219 172.261719 247.457031 Z M 138.125 235.992188 C 137.09375 235.875 133.957031 235.511719 131.152344 235.191406 C 124.429688 234.417969 113.476562 231.59375 106.480469 228.828125 C 77.507812 217.375 54.945312 193.640625 45.027344 164.179688 C 42.378906 156.3125 39.332031 140.9375 40.050781 139.085938 C 40.199219 138.703125 57.078125 142.171875 66.589844 144.542969 C 67.570312 144.785156 67.777344 145.359375 68.101562 148.710938 C 71.066406 179.558594 92.671875 206.921875 122.035156 217.023438 C 129.929688 219.738281 136.382812 220.855469 145.902344 221.152344 L 155.019531 221.4375 L 161.054688 227.390625 C 164.371094 230.667969 167.085938 233.5 167.085938 233.6875 C 167.085938 234.855469 144.089844 236.6875 138.125 235.992188 Z M 192.410156 217.238281 C 190.578125 213.859375 189.09375 210.929688 189.109375 210.730469 C 189.128906 210.527344 191.226562 209.039062 193.773438 207.421875 C 199.0625 204.058594 210.523438 193.015625 214.0625 187.875 C 224.445312 172.777344 228.933594 158.675781 228.953125 141.097656 C 228.96875 127.457031 226.566406 117.238281 220.46875 104.992188 C 207.636719 79.222656 182.804688 62.8125 153.277344 60.589844 C 147.40625 60.148438 150 61.789062 127.191406 44.09375 L 110.628906 31.242188 L 112.710938 30.511719 C 124.992188 26.203125 144.730469 24.429688 159.125 26.339844 C 211.578125 33.304688 250.753906 77.902344 250.753906 130.65625 C 250.753906 147.414062 247.320312 162.289062 240.007812 177.199219 C 231.609375 194.328125 218.460938 209.085938 202.484375 219.308594 C 195.089844 224.039062 196.234375 224.273438 192.410156 217.238281 Z M 192.410156 217.238281 "/>
</g>
</svg>
